# xmcd
#
# Track frame offsets: 
#        150
#        18930
#        37043
#        54500
#        70005
#        85000
#        102525
#        115043
#        130105
#        151143
#
# Disc length: 2248 seconds
#
# Revision: 0
# Processed by: cddbd v1.5.2PL0 Copyright (c) Steve Scherf et al.
# Submitted via: ExactAudioCopy v0.99pb5
#
DISCID=7508c60a
DTITLE=關之琳 - 相約到永久
DYEAR=1994
DGENRE=Pop
TTITLE0=相約到永久
TTITLE1=還是要孤單
TTITLE2=流淚\
TTITLE3=今夜你會很寂寞嗎
TTITLE4=你的眼睛
TTITLE5=真心情人
TTITLE6=失心女子
TTITLE7=愛你是自投羅網
TTITLE8=一見傾心
TTITLE9=姻緣歌
EXTD=
EXTT0=
EXTT1=
EXTT2=
EXTT3=
EXTT4=
EXTT5=
EXTT6=
EXTT7=
EXTT8=
EXTT9=
PLAYORDER=
